<svg width="34" height="34" viewBox="0 0 34 34" fill="none" xmlns="http://www.w3.org/2000/svg">
<rect x="0.5" y="0.5" width="33" height="33" rx="5.5" stroke="#111111"/>
<path d="M21.5 15.875V22.3438C21.5 22.5284 21.4636 22.7113 21.393 22.8819C21.3223 23.0525 21.2187 23.2075 21.0881 23.3381C20.9575 23.4687 20.8025 23.5723 20.6319 23.643C20.4613 23.7136 20.2784 23.75 20.0938 23.75H11.6562C11.2833 23.75 10.9256 23.6018 10.6619 23.3381C10.3982 23.0744 10.25 22.7167 10.25 22.3438V13.9062C10.25 13.5333 10.3982 13.1756 10.6619 12.9119C10.9256 12.6482 11.2833 12.5 11.6562 12.5H17.5442M19.8125 10.25H23.75V14.1875M15.875 18.125L23.4688 10.5312" stroke="#111111" stroke-width="1.125" stroke-linecap="round" stroke-linejoin="round"/>
</svg>
